<?xml version="1.0" encoding="UTF-8" standalone="no"?>
<!DOCTYPE svg PUBLIC "-//W3C//DTD SVG 1.1//EN"
 "http://www.w3.org/Graphics/SVG/1.1/DTD/svg11.dtd">
<!-- Generated by graphviz version 2.26.0 (20091210.2329)
 -->
<!-- Title: G Pages: 1 -->
<svg width="330pt" height="99pt"
 viewBox="0.00 0.00 330.00 99.00" xmlns="http://www.w3.org/2000/svg" xmlns:xlink="http://www.w3.org/1999/xlink">
<g id="graph1" class="graph" transform="scale(1 1) rotate(0) translate(4 95)">
<title>G</title>
<polygon fill="white" stroke="white" points="-4,5 -4,-95 327,-95 327,5 -4,5"/>
<g id="graph2" class="cluster"><title>cluster_global</title>
<polyline fill="none" stroke="gray" points="172,-8 302,-8 "/>
<path fill="none" stroke="gray" d="M302,-8C308,-8 314,-14 314,-20"/>
<polyline fill="none" stroke="gray" points="314,-20 314,-71 "/>
<path fill="none" stroke="gray" d="M314,-71C314,-77 308,-83 302,-83"/>
<polyline fill="none" stroke="gray" points="302,-83 172,-83 "/>
<path fill="none" stroke="gray" d="M172,-83C166,-83 160,-77 160,-71"/>
<polyline fill="none" stroke="gray" points="160,-71 160,-20 "/>
<path fill="none" stroke="gray" d="M160,-20C160,-14 166,-8 172,-8"/>
<text text-anchor="middle" x="237" y="-69.1" font-family="Times Roman,serif" font-size="11.00" fill="gray">global</text>
</g>
<!-- \\DownloadSimpleHeap -->
<g id="node2" class="node"><title>\\DownloadSimpleHeap</title>
<a xlink:href="heap.html" xlink:title="DownloadSimpleHeap" target="_parent">
<polygon fill="none" stroke="black" points="306,-52 168,-52 168,-16 306,-16 306,-52"/>
<text text-anchor="middle" x="237" y="-31.1" font-family="Courier,monospace" font-size="11.00">DownloadSimpleHeap</text>
</a>
</g>
<!-- \\SplHeap -->
<g id="node4" class="node"><title>\\SplHeap</title>
<ellipse fill="none" stroke="black" cx="48" cy="-34" rx="46.8775" ry="19.0919"/>
<text text-anchor="middle" x="48" y="-30.9" font-family="Times Roman,serif" font-size="14.00" fill="gray">\SplHeap</text>
</g>
<!-- \\DownloadSimpleHeap&#45;&gt;\\SplHeap -->
<g id="edge3" class="edge"><title>\\DownloadSimpleHeap&#45;&gt;\\SplHeap</title>
<path fill="none" stroke="black" d="M167.964,-34C147.491,-34 125.294,-34 105.624,-34"/>
<polygon fill="none" stroke="black" points="105.592,-30.5001 95.5916,-34 105.592,-37.5001 105.592,-30.5001"/>
</g>
</g>
</svg>
